# xmcd
#
# Track frame offsets:
#	150
#	14897
#	32992
#	48315
#	66766
#	83968
#	101957
#	119492
#	136960
#	152974
#	169168
#	186767
#	209944
#
# Disc length: 2964 seconds
#
# Revision: 8
# Processed by: cddbd v1.5.2PL0 Copyright (c) Steve Scherf et al.
# Submitted via: audiograbber 1.83.01
#
DISCID=ca0b920d
DTITLE=George Harrison - The Dark Horse Years 1976-1992 [CD 5) - Cloud Nine [re
DTITLE=mastered 2004]
DYEAR=1987
DGENRE=Rock
TTITLE0=Cloud 9
TTITLE1=That's What It Takes
TTITLE2=Fish On The Sand
TTITLE3=Just For Today
TTITLE4=This Is Love
TTITLE5=When We Was Fab
TTITLE6=Devil's Radio
TTITLE7=Someplace Else
TTITLE8=Wreck Of The Hesperus
TTITLE9=Breath Away From Heaven
TTITLE10=Got My Mind Set On You
TTITLE11=Shanghai Surprise [additional track]
TTITLE12=Zig Zag [additional track]
EXTD=
EXTT0=
EXTT1=
EXTT2=
EXTT3=
EXTT4=
EXTT5=
EXTT6=
EXTT7=
EXTT8=
EXTT9=
EXTT10=
EXTT11=
EXTT12=
PLAYORDER=
